<mxfile host="drawio-plugin" modified="2023-01-26T20:54:35.925Z" agent="5.0 (Windows NT 6.2; Win64; x64) AppleWebKit/537.36 (KHTML, like Gecko) Chrome/97.0.4692.45 Safari/537.36" etag="Fncn6CZxO5237xjVw7lk" version="20.5.3" type="embed"><diagram id="23iRSUPoRavnBvh4doch" name="Page-1"><mxGraphModel dx="1182" dy="855" grid="1" gridSize="10" guides="1" tooltips="1" connect="1" arrows="1" fold="1" page="1" pageScale="1" pageWidth="827" pageHeight="1169" math="0" shadow="0"><root><mxCell id="0"/><mxCell id="1" parent="0"/><mxCell id="39" value="&lt;div style=&quot;text-align: center; box-sizing: border-box; width: 100%; background: rgb(228, 228, 228); padding: 2px;&quot;&gt;&lt;b&gt;Pacients&lt;/b&gt;&lt;/div&gt;&lt;table style=&quot;width:100%;font-size:1em;&quot; cellpadding=&quot;2&quot; cellspacing=&quot;0&quot;&gt;&lt;tbody&gt;&lt;tr&gt;&lt;td&gt;pacient_id&lt;/td&gt;&lt;td style=&quot;text-align: right;&quot;&gt;int&lt;/td&gt;&lt;/tr&gt;&lt;tr&gt;&lt;td&gt;name&lt;/td&gt;&lt;td style=&quot;text-align: right;&quot;&gt;varchar(30)&lt;/td&gt;&lt;/tr&gt;&lt;tr&gt;&lt;td&gt;surname&lt;/td&gt;&lt;td style=&quot;text-align: right;&quot;&gt;varchar(30)&lt;/td&gt;&lt;/tr&gt;&lt;tr&gt;&lt;td&gt;adress&lt;/td&gt;&lt;td style=&quot;text-align: right;&quot;&gt;varchar(45)&lt;/td&gt;&lt;/tr&gt;&lt;tr&gt;&lt;td&gt;DMS&lt;/td&gt;&lt;td style=&quot;text-align: right;&quot;&gt;long&lt;/td&gt;&lt;/tr&gt;&lt;tr&gt;&lt;td&gt;OMS&lt;/td&gt;&lt;td style=&quot;text-align: right;&quot;&gt;long&lt;/td&gt;&lt;/tr&gt;&lt;tr&gt;&lt;td&gt;age&lt;/td&gt;&lt;td style=&quot;text-align: right;&quot;&gt;short&lt;/td&gt;&lt;/tr&gt;&lt;tr&gt;&lt;td&gt;sex&lt;/td&gt;&lt;td style=&quot;text-align: right;&quot;&gt;varchar(1)&lt;/td&gt;&lt;/tr&gt;&lt;/tbody&gt;&lt;/table&gt;" style="verticalAlign=top;align=left;overflow=fill;html=1;shadow=1;strokeColor=default;strokeWidth=2;fillColor=default;" parent="1" vertex="1"><mxGeometry x="440" y="120" width="140" height="170" as="geometry"/></mxCell><mxCell id="36" value="&lt;div style=&quot;text-align: center; box-sizing: border-box; width: 100%; background: rgb(228, 228, 228); padding: 2px;&quot;&gt;&lt;b&gt;Doctors&lt;/b&gt;&lt;/div&gt;&lt;table style=&quot;width:100%;font-size:1em;&quot; cellpadding=&quot;2&quot; cellspacing=&quot;0&quot;&gt;&lt;tbody&gt;&lt;tr&gt;&lt;td&gt;doctor_id&lt;/td&gt;&lt;td style=&quot;text-align: right;&quot;&gt;int&lt;/td&gt;&lt;/tr&gt;&lt;tr&gt;&lt;td&gt;name&lt;/td&gt;&lt;td style=&quot;text-align: right;&quot;&gt;varchar(30)&lt;/td&gt;&lt;/tr&gt;&lt;tr&gt;&lt;td&gt;surname&lt;/td&gt;&lt;td style=&quot;text-align: right;&quot;&gt;varchar(30)&lt;/td&gt;&lt;/tr&gt;&lt;tr&gt;&lt;td&gt;adress&lt;/td&gt;&lt;td style=&quot;text-align: right;&quot;&gt;varchar(45)&lt;/td&gt;&lt;/tr&gt;&lt;tr&gt;&lt;td&gt;sex&lt;/td&gt;&lt;td style=&quot;text-align: right;&quot;&gt;short&lt;/td&gt;&lt;/tr&gt;&lt;tr&gt;&lt;td&gt;spec_id&lt;/td&gt;&lt;td style=&quot;text-align: right;&quot;&gt;int&lt;/td&gt;&lt;/tr&gt;&lt;/tbody&gt;&lt;/table&gt;" style="verticalAlign=top;align=left;overflow=fill;html=1;shadow=1;strokeColor=default;strokeWidth=2;fillColor=default;" parent="1" vertex="1"><mxGeometry x="40" y="240" width="140" height="130" as="geometry"/></mxCell><mxCell id="42" value="&lt;div style=&quot;text-align: center; box-sizing: border-box; width: 100%; background: rgb(228, 228, 228); padding: 2px;&quot;&gt;&lt;b&gt;Specialists&lt;/b&gt;&lt;/div&gt;&lt;table style=&quot;width:100%;font-size:1em;&quot; cellpadding=&quot;2&quot; cellspacing=&quot;0&quot;&gt;&lt;tbody&gt;&lt;tr&gt;&lt;td&gt;spec_id&lt;/td&gt;&lt;td style=&quot;text-align: right;&quot;&gt;int&lt;/td&gt;&lt;/tr&gt;&lt;tr&gt;&lt;td&gt;name&lt;/td&gt;&lt;td style=&quot;text-align: right;&quot;&gt;varchar(30)&lt;/td&gt;&lt;/tr&gt;&lt;/tbody&gt;&lt;/table&gt;" style="verticalAlign=top;align=left;overflow=fill;html=1;shadow=1;strokeColor=default;strokeWidth=2;fillColor=default;" parent="1" vertex="1"><mxGeometry x="40" y="120" width="140" height="60" as="geometry"/></mxCell><mxCell id="45" value="&lt;div style=&quot;text-align: center; box-sizing: border-box; width: 100%; background: rgb(228, 228, 228); padding: 2px;&quot;&gt;&lt;b&gt;Shedules&lt;/b&gt;&lt;/div&gt;&lt;table style=&quot;width:100%;font-size:1em;&quot; cellpadding=&quot;2&quot; cellspacing=&quot;0&quot;&gt;&lt;tbody&gt;&lt;tr&gt;&lt;td&gt;shedule_id&lt;/td&gt;&lt;td style=&quot;text-align: right;&quot;&gt;int&lt;/td&gt;&lt;/tr&gt;&lt;tr&gt;&lt;td&gt;doctor_id&lt;/td&gt;&lt;td style=&quot;text-align: right;&quot;&gt;int&lt;br&gt;&lt;/td&gt;&lt;/tr&gt;&lt;tr&gt;&lt;td&gt;pacient_id&lt;/td&gt;&lt;td style=&quot;text-align: right;&quot;&gt;int&lt;br&gt;&lt;/td&gt;&lt;/tr&gt;&lt;tr&gt;&lt;td&gt;date&lt;/td&gt;&lt;td style=&quot;text-align: right;&quot;&gt;datetime&lt;/td&gt;&lt;/tr&gt;&lt;tr&gt;&lt;td&gt;office_id&lt;/td&gt;&lt;td style=&quot;text-align: right;&quot;&gt;long&lt;/td&gt;&lt;/tr&gt;&lt;/tbody&gt;&lt;/table&gt;" style="verticalAlign=top;align=left;overflow=fill;html=1;shadow=1;strokeColor=default;strokeWidth=2;fillColor=default;" parent="1" vertex="1"><mxGeometry x="240" y="240" width="140" height="110" as="geometry"/></mxCell><mxCell id="46" value="&lt;div style=&quot;text-align: center; box-sizing: border-box; width: 100%; background: rgb(228, 228, 228); padding: 2px;&quot;&gt;&lt;b&gt;Sicklists&lt;/b&gt;&lt;/div&gt;&lt;table style=&quot;width:100%;font-size:1em;&quot; cellpadding=&quot;2&quot; cellspacing=&quot;0&quot;&gt;&lt;tbody&gt;&lt;tr&gt;&lt;td&gt;sicklist_id&lt;/td&gt;&lt;td style=&quot;text-align: right;&quot;&gt;int&lt;/td&gt;&lt;/tr&gt;&lt;tr&gt;&lt;td&gt;dataopen&lt;/td&gt;&lt;td style=&quot;text-align: right;&quot;&gt;datetime&lt;/td&gt;&lt;/tr&gt;&lt;tr&gt;&lt;td&gt;dataclose&lt;/td&gt;&lt;td style=&quot;text-align: right;&quot;&gt;datetime&lt;/td&gt;&lt;/tr&gt;&lt;/tbody&gt;&lt;/table&gt;" style="verticalAlign=top;align=left;overflow=fill;html=1;shadow=1;strokeColor=default;strokeWidth=2;fillColor=default;" parent="1" vertex="1"><mxGeometry x="640" y="500" width="140" height="80" as="geometry"/></mxCell><mxCell id="47" value="&lt;div style=&quot;text-align: center; box-sizing: border-box; width: 100%; background: rgb(228, 228, 228); padding: 2px;&quot;&gt;&lt;b&gt;MKB_codes&lt;/b&gt;&lt;/div&gt;&lt;table style=&quot;width:100%;font-size:1em;&quot; cellpadding=&quot;2&quot; cellspacing=&quot;0&quot;&gt;&lt;tbody&gt;&lt;tr&gt;&lt;td&gt;codemkb_id&lt;br&gt;&lt;/td&gt;&lt;td style=&quot;text-align: right;&quot;&gt;int&lt;/td&gt;&lt;/tr&gt;&lt;tr&gt;&lt;td&gt;name&lt;/td&gt;&lt;td style=&quot;text-align: right;&quot;&gt;varchar(30)&lt;/td&gt;&lt;/tr&gt;&lt;tr&gt;&lt;td&gt;code&lt;/td&gt;&lt;td style=&quot;text-align: right;&quot;&gt;int&lt;/td&gt;&lt;/tr&gt;&lt;/tbody&gt;&lt;/table&gt;" style="verticalAlign=top;align=left;overflow=fill;html=1;shadow=1;strokeColor=default;strokeWidth=2;fillColor=default;" parent="1" vertex="1"><mxGeometry x="640" y="370" width="140" height="80" as="geometry"/></mxCell><mxCell id="48" value="&lt;div style=&quot;text-align: center; box-sizing: border-box; width: 100%; background: rgb(228, 228, 228); padding: 2px;&quot;&gt;&lt;b&gt;Analyzes&lt;/b&gt;&lt;/div&gt;&lt;table style=&quot;width:100%;font-size:1em;&quot; cellpadding=&quot;2&quot; cellspacing=&quot;0&quot;&gt;&lt;tbody&gt;&lt;tr&gt;&lt;td&gt;analysis_id&lt;/td&gt;&lt;td style=&quot;text-align: right;&quot;&gt;int&lt;/td&gt;&lt;/tr&gt;&lt;tr&gt;&lt;td&gt;type&lt;/td&gt;&lt;td style=&quot;text-align: right;&quot;&gt;varchar(30)&lt;/td&gt;&lt;/tr&gt;&lt;tr&gt;&lt;td&gt;result&lt;/td&gt;&lt;td style=&quot;text-align: right;&quot;&gt;text&lt;/td&gt;&lt;/tr&gt;&lt;tr&gt;&lt;td&gt;pacient_id&lt;/td&gt;&lt;td style=&quot;text-align: right;&quot;&gt;int&lt;/td&gt;&lt;/tr&gt;&lt;/tbody&gt;&lt;/table&gt;" style="verticalAlign=top;align=left;overflow=fill;html=1;shadow=1;strokeColor=default;strokeWidth=2;fillColor=default;" parent="1" vertex="1"><mxGeometry x="640" y="120" width="140" height="100" as="geometry"/></mxCell><mxCell id="49" value="&lt;div style=&quot;text-align: center; box-sizing: border-box; width: 100%; background: rgb(228, 228, 228); padding: 2px;&quot;&gt;&lt;b&gt;Cards_historys&lt;/b&gt;&lt;/div&gt;&lt;table style=&quot;width:100%;font-size:1em;&quot; cellpadding=&quot;2&quot; cellspacing=&quot;0&quot;&gt;&lt;tbody&gt;&lt;tr&gt;&lt;td&gt;card_id&lt;/td&gt;&lt;td style=&quot;text-align: right;&quot;&gt;int&lt;/td&gt;&lt;/tr&gt;&lt;tr&gt;&lt;td&gt;date_open&lt;/td&gt;&lt;td style=&quot;text-align: right;&quot;&gt;datetime&lt;/td&gt;&lt;/tr&gt;&lt;tr&gt;&lt;td&gt;pacient_id&lt;/td&gt;&lt;td style=&quot;text-align: right;&quot;&gt;int&lt;/td&gt;&lt;/tr&gt;&lt;tr&gt;&lt;td&gt;doctor_id&lt;/td&gt;&lt;td style=&quot;text-align: right;&quot;&gt;int&lt;/td&gt;&lt;/tr&gt;&lt;tr&gt;&lt;td&gt;anamnesis&lt;/td&gt;&lt;td style=&quot;text-align: right;&quot;&gt;text&lt;/td&gt;&lt;/tr&gt;&lt;tr&gt;&lt;td&gt;diagnosis&lt;/td&gt;&lt;td style=&quot;text-align: right;&quot;&gt;text&lt;/td&gt;&lt;/tr&gt;&lt;tr&gt;&lt;td&gt;codemkb_id&lt;br&gt;&lt;/td&gt;&lt;td style=&quot;text-align: right;&quot;&gt;int&lt;/td&gt;&lt;/tr&gt;&lt;tr&gt;&lt;td&gt;epicrisis&lt;/td&gt;&lt;td style=&quot;text-align: right;&quot;&gt;text&lt;/td&gt;&lt;/tr&gt;&lt;tr&gt;&lt;td&gt;prescription&lt;/td&gt;&lt;td style=&quot;text-align: right;&quot;&gt;text&lt;/td&gt;&lt;/tr&gt;&lt;tr&gt;&lt;td&gt;sicklist_id&lt;/td&gt;&lt;td style=&quot;text-align: right;&quot;&gt;int&lt;/td&gt;&lt;/tr&gt;&lt;/tbody&gt;&lt;/table&gt;" style="verticalAlign=top;align=left;overflow=fill;html=1;shadow=1;strokeColor=default;strokeWidth=2;fillColor=default;" parent="1" vertex="1"><mxGeometry x="440" y="370" width="140" height="210" as="geometry"/></mxCell><mxCell id="50" value="&lt;div style=&quot;text-align: center; box-sizing: border-box; width: 100%; background: rgb(228, 228, 228); padding: 2px;&quot;&gt;&lt;b&gt;Office&lt;/b&gt;&lt;/div&gt;&lt;table style=&quot;width:100%;font-size:1em;&quot; cellpadding=&quot;2&quot; cellspacing=&quot;0&quot;&gt;&lt;tbody&gt;&lt;tr&gt;&lt;td&gt;ID&lt;/td&gt;&lt;td style=&quot;text-align: right;&quot;&gt;int&lt;/td&gt;&lt;/tr&gt;&lt;tr&gt;&lt;td&gt;name&lt;/td&gt;&lt;td style=&quot;text-align: right;&quot;&gt;varchar(30)&lt;/td&gt;&lt;/tr&gt;&lt;/tbody&gt;&lt;/table&gt;" style="verticalAlign=top;align=left;overflow=fill;html=1;shadow=1;strokeColor=default;strokeWidth=2;fillColor=default;" parent="1" vertex="1"><mxGeometry x="40" y="430" width="140" height="60" as="geometry"/></mxCell><mxCell id="51" value="&lt;div style=&quot;text-align: center; box-sizing: border-box; width: 100%; background: rgb(228, 228, 228); padding: 2px;&quot;&gt;&lt;b&gt;Visites&lt;/b&gt;&lt;br&gt;&lt;/div&gt;&lt;table style=&quot;width:100%;font-size:1em;&quot; cellpadding=&quot;2&quot; cellspacing=&quot;0&quot;&gt;&lt;tbody&gt;&lt;tr&gt;&lt;td&gt;visit_id&lt;/td&gt;&lt;td style=&quot;text-align: right;&quot;&gt;int&lt;/td&gt;&lt;/tr&gt;&lt;tr&gt;&lt;td&gt;date&lt;/td&gt;&lt;td style=&quot;text-align: right;&quot;&gt;datetime&lt;/td&gt;&lt;/tr&gt;&lt;tr&gt;&lt;td&gt;anamnesis&lt;/td&gt;&lt;td style=&quot;text-align: right;&quot;&gt;text&lt;/td&gt;&lt;/tr&gt;&lt;tr&gt;&lt;td&gt;comments&lt;/td&gt;&lt;td style=&quot;text-align: right;&quot;&gt;text&lt;/td&gt;&lt;/tr&gt;&lt;tr&gt;&lt;td&gt;OMS&lt;/td&gt;&lt;td style=&quot;text-align: right;&quot;&gt;long&lt;/td&gt;&lt;/tr&gt;&lt;tr&gt;&lt;td&gt;card_ID&lt;/td&gt;&lt;td style=&quot;text-align: right;&quot;&gt;int&lt;/td&gt;&lt;/tr&gt;&lt;/tbody&gt;&lt;/table&gt;" style="verticalAlign=top;align=left;overflow=fill;html=1;shadow=1;strokeColor=default;strokeWidth=2;fillColor=default;" parent="1" vertex="1"><mxGeometry x="240" y="430" width="140" height="140" as="geometry"/></mxCell><mxCell id="52" value="" style="fontSize=12;html=1;endArrow=ERzeroToMany;rounded=0;endFill=0;entryX=0;entryY=0.887;entryDx=0;entryDy=0;entryPerimeter=0;edgeStyle=orthogonalEdgeStyle;exitX=-0.005;exitY=0.462;exitDx=0;exitDy=0;exitPerimeter=0;startArrow=ERmandOne;startFill=0;" parent="1" source="42" target="36" edge="1"><mxGeometry width="100" height="100" relative="1" as="geometry"><mxPoint x="30" y="140" as="sourcePoint"/><mxPoint x="20" y="240" as="targetPoint"/><Array as="points"><mxPoint x="20" y="148"/><mxPoint x="20" y="355"/></Array></mxGeometry></mxCell><mxCell id="53" style="edgeStyle=none;rounded=0;orthogonalLoop=1;jettySize=auto;html=1;exitX=0.5;exitY=1;exitDx=0;exitDy=0;" parent="1" source="42" target="42" edge="1"><mxGeometry relative="1" as="geometry"/></mxCell><mxCell id="54" value="" style="edgeStyle=orthogonalEdgeStyle;fontSize=12;html=1;endArrow=ERmandOne;startArrow=ERmandOne;rounded=0;entryX=0.002;entryY=0.876;entryDx=0;entryDy=0;entryPerimeter=0;exitX=1.009;exitY=0.393;exitDx=0;exitDy=0;exitPerimeter=0;" parent="1" source="50" target="45" edge="1"><mxGeometry width="100" height="100" relative="1" as="geometry"><mxPoint x="360" y="570" as="sourcePoint"/><mxPoint x="460" y="470" as="targetPoint"/><Array as="points"><mxPoint x="210" y="454"/><mxPoint x="210" y="336"/></Array></mxGeometry></mxCell><mxCell id="55" value="" style="edgeStyle=orthogonalEdgeStyle;fontSize=12;html=1;endArrow=ERmandOne;startArrow=ERmandOne;rounded=0;entryX=-0.009;entryY=0.4;entryDx=0;entryDy=0;entryPerimeter=0;exitX=0.997;exitY=0.203;exitDx=0;exitDy=0;exitPerimeter=0;" parent="1" source="36" target="45" edge="1"><mxGeometry width="100" height="100" relative="1" as="geometry"><mxPoint x="360" y="570" as="sourcePoint"/><mxPoint x="460" y="470" as="targetPoint"/></mxGeometry></mxCell><mxCell id="56" value="" style="edgeStyle=orthogonalEdgeStyle;fontSize=12;html=1;endArrow=ERmandOne;startArrow=ERmandOne;rounded=0;entryX=-0.007;entryY=0.145;entryDx=0;entryDy=0;entryPerimeter=0;exitX=0.996;exitY=0.576;exitDx=0;exitDy=0;exitPerimeter=0;" parent="1" source="45" target="39" edge="1"><mxGeometry width="100" height="100" relative="1" as="geometry"><mxPoint x="360" y="570" as="sourcePoint"/><mxPoint x="460" y="470" as="targetPoint"/></mxGeometry></mxCell><mxCell id="58" value="" style="fontSize=12;html=1;endArrow=ERzeroToMany;startArrow=ERmandOne;rounded=0;entryX=1.007;entryY=0.296;entryDx=0;entryDy=0;entryPerimeter=0;exitX=0.998;exitY=0.146;exitDx=0;exitDy=0;exitPerimeter=0;edgeStyle=orthogonalEdgeStyle;endFill=0;" parent="1" source="39" target="49" edge="1"><mxGeometry width="100" height="100" relative="1" as="geometry"><mxPoint x="610" y="340" as="sourcePoint"/><mxPoint x="710" y="240" as="targetPoint"/><Array as="points"><mxPoint x="600" y="145"/><mxPoint x="600" y="432"/></Array></mxGeometry></mxCell><mxCell id="59" value="" style="edgeStyle=elbowEdgeStyle;fontSize=12;html=1;endArrow=ERzeroToMany;startArrow=ERmandOne;rounded=0;exitX=0.999;exitY=0.147;exitDx=0;exitDy=0;exitPerimeter=0;entryX=-0.003;entryY=0.803;entryDx=0;entryDy=0;entryPerimeter=0;" parent="1" source="39" target="48" edge="1"><mxGeometry width="100" height="100" relative="1" as="geometry"><mxPoint x="610" y="260" as="sourcePoint"/><mxPoint x="710" y="160" as="targetPoint"/><Array as="points"><mxPoint x="600" y="170"/></Array></mxGeometry></mxCell><mxCell id="60" value="" style="edgeStyle=orthogonalEdgeStyle;fontSize=12;html=1;endArrow=ERmandOne;startArrow=ERmandOne;rounded=0;exitX=1.001;exitY=0.886;exitDx=0;exitDy=0;exitPerimeter=0;entryX=-0.003;entryY=0.353;entryDx=0;entryDy=0;entryPerimeter=0;" parent="1" source="49" target="46" edge="1"><mxGeometry width="100" height="100" relative="1" as="geometry"><mxPoint x="610" y="500" as="sourcePoint"/><mxPoint x="710" y="400" as="targetPoint"/></mxGeometry></mxCell><mxCell id="61" value="" style="edgeStyle=orthogonalEdgeStyle;fontSize=12;html=1;endArrow=ERzeroToMany;startArrow=ERmandOne;rounded=0;exitX=0;exitY=0.343;exitDx=0;exitDy=0;exitPerimeter=0;entryX=0.996;entryY=0.635;entryDx=0;entryDy=0;entryPerimeter=0;" parent="1" source="47" target="49" edge="1"><mxGeometry width="100" height="100" relative="1" as="geometry"><mxPoint x="590" y="480" as="sourcePoint"/><mxPoint x="650" y="475" as="targetPoint"/><Array as="points"><mxPoint x="620" y="397"/><mxPoint x="620" y="503"/></Array></mxGeometry></mxCell><mxCell id="62" value="" style="edgeStyle=entityRelationEdgeStyle;fontSize=12;html=1;endArrow=ERoneToMany;rounded=0;entryX=1.001;entryY=0.812;entryDx=0;entryDy=0;entryPerimeter=0;exitX=0;exitY=0.131;exitDx=0;exitDy=0;exitPerimeter=0;startArrow=ERmandOne;startFill=0;" parent="1" source="49" target="51" edge="1"><mxGeometry width="100" height="100" relative="1" as="geometry"><mxPoint x="390" y="560" as="sourcePoint"/><mxPoint x="490" y="460" as="targetPoint"/></mxGeometry></mxCell><mxCell id="63" value="&lt;font style=&quot;font-size: 20px;&quot;&gt;&lt;b&gt;Поликлинника ERD&lt;/b&gt;&lt;/font&gt;" style="text;html=1;strokeColor=none;fillColor=none;align=center;verticalAlign=middle;whiteSpace=wrap;rounded=0;" vertex="1" parent="1"><mxGeometry x="260" y="60" width="60" height="30" as="geometry"/></mxCell></root></mxGraphModel></diagram></mxfile>